<svg xmlns="http://www.w3.org/2000/svg" viewBox="0 0 192 192" width="192" height="192">
  <defs>
    <linearGradient id="bg" x1="0%" y1="0%" x2="100%" y2="100%">
      <stop offset="0%" style="stop-color:#3b82f6;stop-opacity:1" />
      <stop offset="100%" style="stop-color:#1e40af;stop-opacity:1" />
    </linearGradient>
  </defs>
  
  <!-- Background -->
  <rect width="192" height="192" rx="42" fill="url(#bg)"/>
  
  <!-- Calculator body -->
  <rect x="32" y="48" width="128" height="96" rx="12" fill="white" stroke="#e5e7eb" stroke-width="2"/>
  
  <!-- Calculator screen -->
  <rect x="42" y="58" width="108" height="26" rx="6" fill="#f3f4f6"/>
  
  <!-- Calculator buttons -->
  <rect x="42" y="90" width="22" height="16" rx="3" fill="#e5e7eb"/>
  <rect x="68" y="90" width="22" height="16" rx="3" fill="#e5e7eb"/>
  <rect x="94" y="90" width="22" height="16" rx="3" fill="#e5e7eb"/>
  <rect x="120" y="90" width="22" height="16" rx="3" fill="#3b82f6"/>
  
  <rect x="42" y="112" width="22" height="16" rx="3" fill="#e5e7eb"/>
  <rect x="68" y="112" width="22" height="16" rx="3" fill="#e5e7eb"/>
  <rect x="94" y="112" width="22" height="16" rx="3" fill="#e5e7eb"/>
  <rect x="120" y="112" width="22" height="16" rx="3" fill="#3b82f6"/>
  
  <rect x="42" y="134" width="22" height="16" rx="3" fill="#e5e7eb"/>
  <rect x="68" y="134" width="22" height="16" rx="3" fill="#e5e7eb"/>
  <rect x="94" y="134" width="22" height="16" rx="3" fill="#e5e7eb"/>
  <rect x="120" y="134" width="22" height="16" rx="3" fill="#ef4444"/>
  
  <!-- "会" character -->
  <text x="96" y="74" font-family="Arial, sans-serif" font-size="13" font-weight="bold" text-anchor="middle" fill="#374151">会</text>
</svg>
