<svg xmlns="http://www.w3.org/2000/svg" viewBox="0 0 512 512" width="512" height="512">
  <defs>
    <linearGradient id="bg" x1="0%" y1="0%" x2="100%" y2="100%">
      <stop offset="0%" style="stop-color:#3b82f6;stop-opacity:1" />
      <stop offset="100%" style="stop-color:#1e40af;stop-opacity:1" />
    </linearGradient>
  </defs>
  
  <!-- Background -->
  <rect width="512" height="512" rx="112" fill="url(#bg)"/>
  
  <!-- Calculator body -->
  <rect x="85" y="128" width="342" height="256" rx="32" fill="white" stroke="#e5e7eb" stroke-width="6"/>
  
  <!-- Calculator screen -->
  <rect x="110" y="154" width="292" height="70" rx="16" fill="#f3f4f6"/>
  
  <!-- Calculator buttons -->
  <rect x="110" y="240" width="58" height="42" rx="8" fill="#e5e7eb"/>
  <rect x="180" y="240" width="58" height="42" rx="8" fill="#e5e7eb"/>
  <rect x="250" y="240" width="58" height="42" rx="8" fill="#e5e7eb"/>
  <rect x="320" y="240" width="58" height="42" rx="8" fill="#3b82f6"/>
  
  <rect x="110" y="298" width="58" height="42" rx="8" fill="#e5e7eb"/>
  <rect x="180" y="298" width="58" height="42" rx="8" fill="#e5e7eb"/>
  <rect x="250" y="298" width="58" height="42" rx="8" fill="#e5e7eb"/>
  <rect x="320" y="298" width="58" height="42" rx="8" fill="#3b82f6"/>
  
  <rect x="110" y="356" width="58" height="42" rx="8" fill="#e5e7eb"/>
  <rect x="180" y="356" width="58" height="42" rx="8" fill="#e5e7eb"/>
  <rect x="250" y="356" width="58" height="42" rx="8" fill="#e5e7eb"/>
  <rect x="320" y="356" width="58" height="42" rx="8" fill="#ef4444"/>
  
  <!-- "会" character -->
  <text x="256" y="200" font-family="Arial, sans-serif" font-size="35" font-weight="bold" text-anchor="middle" fill="#374151">会</text>
</svg>
